<svg xmlns="http://www.w3.org/2000/svg" width="101" height="16" fill="none"><path fill="#377DFF" d="M11.54 11.59c.147 0 .277.057.39.17l1.06 1.15a5.812 5.812 0 0 1-2.17 1.67c-.853.387-1.88.58-3.08.58-1.073 0-2.04-.183-2.9-.55a6.393 6.393 0 0 1-2.19-1.53 6.759 6.759 0 0 1-1.4-2.34C.93 9.833.77 8.843.77 7.77c0-1.087.173-2.08.52-2.98a6.89 6.89 0 0 1 1.46-2.34A6.623 6.623 0 0 1 5.01.93C5.883.563 6.85.38 7.91.38c1.053 0 1.987.173 2.8.52.82.347 1.517.8 2.09 1.36l-.9 1.25a.785.785 0 0 1-.21.21.558.558 0 0 1-.34.09.692.692 0 0 1-.31-.08 8.076 8.076 0 0 1-.35-.21 8.835 8.835 0 0 0-.44-.28c-.167-.1-.36-.19-.58-.27a4.122 4.122 0 0 0-.77-.21c-.287-.06-.62-.09-1-.09a4.44 4.44 0 0 0-1.78.35 3.79 3.79 0 0 0-1.38 1c-.387.433-.687.967-.9 1.6-.213.627-.32 1.343-.32 2.15 0 .813.113 1.537.34 2.17.233.633.547 1.167.94 1.6a4.05 4.05 0 0 0 1.39 1 4.35 4.35 0 0 0 1.72.34c.367 0 .697-.02.99-.06.3-.04.573-.103.82-.19a3.64 3.64 0 0 0 .71-.33c.227-.14.45-.31.67-.51a.825.825 0 0 1 .21-.14c.073-.04.15-.06.23-.06Zm5.993-8.91v4.01h5.06v2.07h-5.06v4.09h6.42V15h-9.12V.54h9.12v2.14h-6.42ZM38.527.54V15h-1.38a1.3 1.3 0 0 1-.54-.1 1.336 1.336 0 0 1-.41-.36l-7.55-9.64c.04.44.06.847.06 1.22V15h-2.37V.54h1.41c.113 0 .21.007.29.02.086.007.16.027.22.06a.57.57 0 0 1 .19.13c.06.053.126.127.2.22l7.58 9.68c-.02-.233-.037-.463-.05-.69-.014-.227-.02-.437-.02-.63V.54h2.37Zm13.15 11.05c.146 0 .276.057.39.17l1.06 1.15a5.812 5.812 0 0 1-2.17 1.67c-.854.387-1.88.58-3.08.58-1.074 0-2.04-.183-2.9-.55a6.394 6.394 0 0 1-2.19-1.53 6.76 6.76 0 0 1-1.4-2.34c-.32-.907-.48-1.897-.48-2.97 0-1.087.173-2.08.52-2.98a6.892 6.892 0 0 1 1.46-2.34 6.624 6.624 0 0 1 2.26-1.52c.873-.367 1.84-.55 2.9-.55 1.053 0 1.986.173 2.8.52.82.347 1.516.8 2.09 1.36l-.9 1.25a.785.785 0 0 1-.21.21.558.558 0 0 1-.34.09.692.692 0 0 1-.31-.08 8.137 8.137 0 0 1-.35-.21 8.789 8.789 0 0 0-.44-.28c-.167-.1-.36-.19-.58-.27a4.12 4.12 0 0 0-.77-.21c-.287-.06-.62-.09-1-.09a4.44 4.44 0 0 0-1.78.35 3.79 3.79 0 0 0-1.38 1c-.387.433-.687.967-.9 1.6-.214.627-.32 1.343-.32 2.15 0 .813.113 1.537.34 2.17.233.633.546 1.167.94 1.6a4.05 4.05 0 0 0 1.39 1c.533.227 1.106.34 1.72.34.366 0 .696-.02.99-.06.3-.04.573-.103.82-.19.253-.087.49-.197.71-.33.226-.14.45-.31.67-.51a.825.825 0 0 1 .21-.14c.073-.04.15-.06.23-.06Zm16.77-3.82c0 1.06-.177 2.043-.53 2.95-.347.9-.84 1.68-1.48 2.34a6.806 6.806 0 0 1-2.31 1.55c-.9.367-1.9.55-3 .55-1.094 0-2.09-.183-2.99-.55a6.914 6.914 0 0 1-2.32-1.55 6.988 6.988 0 0 1-1.49-2.34c-.353-.907-.53-1.89-.53-2.95 0-1.06.177-2.04.53-2.94.353-.907.85-1.69 1.49-2.35a6.793 6.793 0 0 1 2.32-1.54c.9-.373 1.896-.56 2.99-.56.733 0 1.423.087 2.07.26.646.167 1.24.407 1.78.72a6.29 6.29 0 0 1 1.45 1.13c.433.44.8.933 1.1 1.48.3.547.526 1.14.68 1.78a8.3 8.3 0 0 1 .24 2.02Zm-2.75 0c0-.793-.107-1.503-.32-2.13a4.571 4.571 0 0 0-.91-1.61 3.888 3.888 0 0 0-1.44-1.01c-.56-.233-1.194-.35-1.9-.35-.707 0-1.344.117-1.91.35-.56.233-1.04.57-1.44 1.01-.394.44-.697.977-.91 1.61-.213.627-.32 1.337-.32 2.13 0 .793.107 1.507.32 2.14.213.627.517 1.16.91 1.6.4.433.88.767 1.44 1 .566.233 1.203.35 1.91.35.706 0 1.34-.117 1.9-.35a3.943 3.943 0 0 0 1.44-1c.393-.44.697-.973.91-1.6.213-.633.32-1.347.32-2.14ZM73.509 15h-2.7V.54h2.7V15ZM88.937.54V15h-1.38c-.214 0-.394-.033-.54-.1a1.337 1.337 0 0 1-.41-.36l-7.55-9.64c.04.44.06.847.06 1.22V15h-2.37V.54h1.41c.113 0 .21.007.29.02.086.007.16.027.22.06a.57.57 0 0 1 .19.13c.06.053.126.127.2.22l7.58 9.68c-.02-.233-.037-.463-.05-.69-.014-.227-.02-.437-.02-.63V.54h2.37Zm10.92 2.63a.956.956 0 0 1-.26.31.567.567 0 0 1-.33.09.908.908 0 0 1-.46-.15 8.803 8.803 0 0 0-.58-.35 4.511 4.511 0 0 0-.8-.34 3.2 3.2 0 0 0-1.07-.16c-.373 0-.7.047-.98.14a2.05 2.05 0 0 0-.71.37c-.187.16-.327.353-.42.58a1.85 1.85 0 0 0-.14.73c0 .34.093.623.28.85.193.227.447.42.76.58.313.16.67.303 1.07.43s.81.263 1.23.41c.42.14.83.307 1.23.5.4.187.756.427 1.07.72.313.287.563.64.75 1.06.193.42.29.93.29 1.53 0 .653-.113 1.267-.34 1.84a4.203 4.203 0 0 1-.98 1.49c-.427.42-.95.753-1.57 1-.62.24-1.33.36-2.13.36-.46 0-.913-.047-1.36-.14a7.011 7.011 0 0 1-1.29-.38 6.969 6.969 0 0 1-1.15-.6 5.566 5.566 0 0 1-.96-.78l.79-1.29a.79.79 0 0 1 .26-.23.63.63 0 0 1 .34-.1c.166 0 .346.07.54.21.193.133.423.283.69.45.267.167.577.32.93.46.36.133.79.2 1.29.2.767 0 1.36-.18 1.78-.54.42-.367.63-.89.63-1.57 0-.38-.097-.69-.29-.93a2.196 2.196 0 0 0-.75-.6 5.424 5.424 0 0 0-1.07-.42c-.4-.113-.807-.237-1.22-.37-.414-.133-.82-.293-1.22-.48s-.757-.43-1.07-.73a3.391 3.391 0 0 1-.76-1.12c-.187-.453-.28-1.01-.28-1.67 0-.527.103-1.04.31-1.54.213-.5.52-.943.92-1.33.4-.387.893-.697 1.48-.93.587-.233 1.26-.35 2.02-.35.853 0 1.64.133 2.36.4s1.333.64 1.84 1.12l-.67 1.27Z"/></svg>
